<mxfile host="app.diagrams.net" modified="2022-05-21T13:02:28.372Z" agent="5.0 (Windows NT 10.0; Win64; x64) AppleWebKit/537.36 (KHTML, like Gecko) Chrome/100.0.4896.127 Safari/537.36" etag="Pky0nm64h-8YaobAYZF3" version="17.1.2" type="github">
  <diagram id="C5RBs43oDa-KdzZeNtuy" name="Page-1">
    <mxGraphModel dx="2889" dy="1122" grid="1" gridSize="10" guides="1" tooltips="1" connect="1" arrows="1" fold="1" page="1" pageScale="1" pageWidth="827" pageHeight="1169" math="0" shadow="0">
      <root>
        <mxCell id="WIyWlLk6GJQsqaUBKTNV-0" />
        <mxCell id="WIyWlLk6GJQsqaUBKTNV-1" parent="WIyWlLk6GJQsqaUBKTNV-0" />
        <mxCell id="Pa3N6rqgdRiIKMQ5oKtf-4" value="" style="rounded=0;whiteSpace=wrap;html=1;fillColor=none;" vertex="1" parent="WIyWlLk6GJQsqaUBKTNV-1">
          <mxGeometry x="-155" y="430" width="140" height="120" as="geometry" />
        </mxCell>
        <mxCell id="Pa3N6rqgdRiIKMQ5oKtf-14" value="" style="rounded=0;whiteSpace=wrap;html=1;fillColor=none;" vertex="1" parent="WIyWlLk6GJQsqaUBKTNV-1">
          <mxGeometry x="200" y="430" width="140" height="120" as="geometry" />
        </mxCell>
        <mxCell id="Pa3N6rqgdRiIKMQ5oKtf-8" value="" style="rounded=0;whiteSpace=wrap;html=1;fillColor=none;" vertex="1" parent="WIyWlLk6GJQsqaUBKTNV-1">
          <mxGeometry x="-15" y="430" width="140" height="120" as="geometry" />
        </mxCell>
        <mxCell id="Pa3N6rqgdRiIKMQ5oKtf-2" value="property: n" style="text;html=1;strokeColor=none;fillColor=none;align=center;verticalAlign=middle;whiteSpace=wrap;rounded=0;" vertex="1" parent="WIyWlLk6GJQsqaUBKTNV-1">
          <mxGeometry x="-130" y="440" width="90" height="30" as="geometry" />
        </mxCell>
        <mxCell id="Pa3N6rqgdRiIKMQ5oKtf-27" style="edgeStyle=orthogonalEdgeStyle;rounded=0;orthogonalLoop=1;jettySize=auto;html=1;exitX=0.25;exitY=0;exitDx=0;exitDy=0;entryX=0.25;entryY=1;entryDx=0;entryDy=0;" edge="1" parent="WIyWlLk6GJQsqaUBKTNV-1" source="Pa3N6rqgdRiIKMQ5oKtf-3" target="Pa3N6rqgdRiIKMQ5oKtf-21">
          <mxGeometry relative="1" as="geometry">
            <Array as="points">
              <mxPoint x="-105" y="500" />
              <mxPoint x="-300" y="500" />
            </Array>
          </mxGeometry>
        </mxCell>
        <mxCell id="Pa3N6rqgdRiIKMQ5oKtf-81" style="edgeStyle=orthogonalEdgeStyle;rounded=0;orthogonalLoop=1;jettySize=auto;html=1;exitX=0.75;exitY=1;exitDx=0;exitDy=0;entryX=0.75;entryY=0;entryDx=0;entryDy=0;" edge="1" parent="WIyWlLk6GJQsqaUBKTNV-1" source="Pa3N6rqgdRiIKMQ5oKtf-3" target="Pa3N6rqgdRiIKMQ5oKtf-67">
          <mxGeometry relative="1" as="geometry">
            <Array as="points">
              <mxPoint x="-65" y="600" />
              <mxPoint x="-260" y="600" />
              <mxPoint x="-260" y="740" />
              <mxPoint x="-65" y="740" />
            </Array>
          </mxGeometry>
        </mxCell>
        <mxCell id="Pa3N6rqgdRiIKMQ5oKtf-3" value="page_link" style="rounded=0;whiteSpace=wrap;html=1;" vertex="1" parent="WIyWlLk6GJQsqaUBKTNV-1">
          <mxGeometry x="-125" y="510" width="80" height="30" as="geometry" />
        </mxCell>
        <mxCell id="Pa3N6rqgdRiIKMQ5oKtf-6" value="property: 0" style="text;html=1;strokeColor=none;fillColor=none;align=center;verticalAlign=middle;whiteSpace=wrap;rounded=0;" vertex="1" parent="WIyWlLk6GJQsqaUBKTNV-1">
          <mxGeometry x="10" y="440" width="90" height="30" as="geometry" />
        </mxCell>
        <mxCell id="Pa3N6rqgdRiIKMQ5oKtf-7" value="page_link" style="rounded=0;whiteSpace=wrap;html=1;" vertex="1" parent="WIyWlLk6GJQsqaUBKTNV-1">
          <mxGeometry x="15" y="500" width="80" height="30" as="geometry" />
        </mxCell>
        <mxCell id="Pa3N6rqgdRiIKMQ5oKtf-9" value="Base Page" style="text;html=1;strokeColor=none;fillColor=none;align=center;verticalAlign=middle;whiteSpace=wrap;rounded=0;" vertex="1" parent="WIyWlLk6GJQsqaUBKTNV-1">
          <mxGeometry x="-130" y="370" width="90" height="30" as="geometry" />
        </mxCell>
        <mxCell id="Pa3N6rqgdRiIKMQ5oKtf-10" value="Page 2" style="text;html=1;strokeColor=none;fillColor=none;align=center;verticalAlign=middle;whiteSpace=wrap;rounded=0;" vertex="1" parent="WIyWlLk6GJQsqaUBKTNV-1">
          <mxGeometry x="10" y="370" width="90" height="30" as="geometry" />
        </mxCell>
        <mxCell id="Pa3N6rqgdRiIKMQ5oKtf-12" value="property: 0" style="text;html=1;strokeColor=none;fillColor=none;align=center;verticalAlign=middle;whiteSpace=wrap;rounded=0;" vertex="1" parent="WIyWlLk6GJQsqaUBKTNV-1">
          <mxGeometry x="225" y="440" width="90" height="30" as="geometry" />
        </mxCell>
        <mxCell id="Pa3N6rqgdRiIKMQ5oKtf-13" value="page_link" style="rounded=0;whiteSpace=wrap;html=1;" vertex="1" parent="WIyWlLk6GJQsqaUBKTNV-1">
          <mxGeometry x="230" y="500" width="80" height="30" as="geometry" />
        </mxCell>
        <mxCell id="Pa3N6rqgdRiIKMQ5oKtf-15" value="Page n" style="text;html=1;strokeColor=none;fillColor=none;align=center;verticalAlign=middle;whiteSpace=wrap;rounded=0;" vertex="1" parent="WIyWlLk6GJQsqaUBKTNV-1">
          <mxGeometry x="225" y="370" width="90" height="30" as="geometry" />
        </mxCell>
        <mxCell id="Pa3N6rqgdRiIKMQ5oKtf-16" value="..." style="text;html=1;strokeColor=none;fillColor=none;align=center;verticalAlign=middle;whiteSpace=wrap;rounded=0;" vertex="1" parent="WIyWlLk6GJQsqaUBKTNV-1">
          <mxGeometry x="135" y="459" width="60" height="30" as="geometry" />
        </mxCell>
        <mxCell id="Pa3N6rqgdRiIKMQ5oKtf-17" value="0x00040000" style="text;whiteSpace=wrap;html=1;" vertex="1" parent="WIyWlLk6GJQsqaUBKTNV-1">
          <mxGeometry x="-180" y="400" width="80" height="30" as="geometry" />
        </mxCell>
        <mxCell id="Pa3N6rqgdRiIKMQ5oKtf-18" value="address" style="text;whiteSpace=wrap;html=1;" vertex="1" parent="WIyWlLk6GJQsqaUBKTNV-1">
          <mxGeometry x="380" y="390" width="80" height="30" as="geometry" />
        </mxCell>
        <mxCell id="Pa3N6rqgdRiIKMQ5oKtf-19" value="0x00041000" style="text;whiteSpace=wrap;html=1;" vertex="1" parent="WIyWlLk6GJQsqaUBKTNV-1">
          <mxGeometry x="-50" y="400" width="80" height="30" as="geometry" />
        </mxCell>
        <mxCell id="Pa3N6rqgdRiIKMQ5oKtf-20" value="0x00042000" style="text;whiteSpace=wrap;html=1;" vertex="1" parent="WIyWlLk6GJQsqaUBKTNV-1">
          <mxGeometry x="90" y="400" width="80" height="30" as="geometry" />
        </mxCell>
        <mxCell id="Pa3N6rqgdRiIKMQ5oKtf-24" style="edgeStyle=orthogonalEdgeStyle;rounded=0;orthogonalLoop=1;jettySize=auto;html=1;exitX=0.75;exitY=1;exitDx=0;exitDy=0;entryX=0.75;entryY=0;entryDx=0;entryDy=0;" edge="1" parent="WIyWlLk6GJQsqaUBKTNV-1" source="Pa3N6rqgdRiIKMQ5oKtf-21" target="Pa3N6rqgdRiIKMQ5oKtf-3">
          <mxGeometry relative="1" as="geometry">
            <Array as="points">
              <mxPoint x="-260" y="470" />
              <mxPoint x="-65" y="470" />
            </Array>
          </mxGeometry>
        </mxCell>
        <mxCell id="Pa3N6rqgdRiIKMQ5oKtf-85" style="edgeStyle=orthogonalEdgeStyle;rounded=0;orthogonalLoop=1;jettySize=auto;html=1;exitX=0.25;exitY=0;exitDx=0;exitDy=0;entryX=0.25;entryY=1;entryDx=0;entryDy=0;" edge="1" parent="WIyWlLk6GJQsqaUBKTNV-1" source="Pa3N6rqgdRiIKMQ5oKtf-21" target="Pa3N6rqgdRiIKMQ5oKtf-67">
          <mxGeometry relative="1" as="geometry">
            <Array as="points">
              <mxPoint x="-300" y="300" />
              <mxPoint x="-340" y="300" />
              <mxPoint x="-340" y="835" />
              <mxPoint x="-105" y="835" />
            </Array>
          </mxGeometry>
        </mxCell>
        <mxCell id="Pa3N6rqgdRiIKMQ5oKtf-21" value="free_list" style="rounded=0;whiteSpace=wrap;html=1;" vertex="1" parent="WIyWlLk6GJQsqaUBKTNV-1">
          <mxGeometry x="-320" y="320" width="80" height="30" as="geometry" />
        </mxCell>
        <mxCell id="Pa3N6rqgdRiIKMQ5oKtf-63" value="" style="rounded=0;whiteSpace=wrap;html=1;fillColor=none;" vertex="1" parent="WIyWlLk6GJQsqaUBKTNV-1">
          <mxGeometry x="-155" y="705" width="140" height="120" as="geometry" />
        </mxCell>
        <mxCell id="Pa3N6rqgdRiIKMQ5oKtf-64" value="" style="rounded=0;whiteSpace=wrap;html=1;fillColor=none;" vertex="1" parent="WIyWlLk6GJQsqaUBKTNV-1">
          <mxGeometry x="200" y="705" width="140" height="120" as="geometry" />
        </mxCell>
        <mxCell id="Pa3N6rqgdRiIKMQ5oKtf-65" value="" style="rounded=0;whiteSpace=wrap;html=1;fillColor=none;" vertex="1" parent="WIyWlLk6GJQsqaUBKTNV-1">
          <mxGeometry x="-15" y="705" width="140" height="120" as="geometry" />
        </mxCell>
        <mxCell id="Pa3N6rqgdRiIKMQ5oKtf-66" value="property: n" style="text;html=1;strokeColor=none;fillColor=none;align=center;verticalAlign=middle;whiteSpace=wrap;rounded=0;" vertex="1" parent="WIyWlLk6GJQsqaUBKTNV-1">
          <mxGeometry x="-130" y="715" width="90" height="30" as="geometry" />
        </mxCell>
        <mxCell id="Pa3N6rqgdRiIKMQ5oKtf-82" style="edgeStyle=orthogonalEdgeStyle;rounded=0;orthogonalLoop=1;jettySize=auto;html=1;exitX=0.25;exitY=0;exitDx=0;exitDy=0;entryX=0.25;entryY=1;entryDx=0;entryDy=0;" edge="1" parent="WIyWlLk6GJQsqaUBKTNV-1" source="Pa3N6rqgdRiIKMQ5oKtf-67" target="Pa3N6rqgdRiIKMQ5oKtf-3">
          <mxGeometry relative="1" as="geometry">
            <Array as="points">
              <mxPoint x="-105" y="770" />
              <mxPoint x="-300" y="770" />
              <mxPoint x="-300" y="570" />
              <mxPoint x="-105" y="570" />
            </Array>
          </mxGeometry>
        </mxCell>
        <mxCell id="Pa3N6rqgdRiIKMQ5oKtf-83" style="edgeStyle=orthogonalEdgeStyle;rounded=0;orthogonalLoop=1;jettySize=auto;html=1;exitX=0.75;exitY=1;exitDx=0;exitDy=0;entryX=0.75;entryY=0;entryDx=0;entryDy=0;" edge="1" parent="WIyWlLk6GJQsqaUBKTNV-1" source="Pa3N6rqgdRiIKMQ5oKtf-67" target="Pa3N6rqgdRiIKMQ5oKtf-21">
          <mxGeometry relative="1" as="geometry">
            <Array as="points">
              <mxPoint x="-65" y="870" />
              <mxPoint x="-370" y="870" />
              <mxPoint x="-370" y="270" />
              <mxPoint x="-260" y="270" />
            </Array>
          </mxGeometry>
        </mxCell>
        <mxCell id="Pa3N6rqgdRiIKMQ5oKtf-67" value="page_link" style="rounded=0;whiteSpace=wrap;html=1;" vertex="1" parent="WIyWlLk6GJQsqaUBKTNV-1">
          <mxGeometry x="-125" y="785" width="80" height="30" as="geometry" />
        </mxCell>
        <mxCell id="Pa3N6rqgdRiIKMQ5oKtf-68" value="property: 0" style="text;html=1;strokeColor=none;fillColor=none;align=center;verticalAlign=middle;whiteSpace=wrap;rounded=0;" vertex="1" parent="WIyWlLk6GJQsqaUBKTNV-1">
          <mxGeometry x="10" y="715" width="90" height="30" as="geometry" />
        </mxCell>
        <mxCell id="Pa3N6rqgdRiIKMQ5oKtf-69" value="page_link" style="rounded=0;whiteSpace=wrap;html=1;" vertex="1" parent="WIyWlLk6GJQsqaUBKTNV-1">
          <mxGeometry x="15" y="775" width="80" height="30" as="geometry" />
        </mxCell>
        <mxCell id="Pa3N6rqgdRiIKMQ5oKtf-70" value="Base Page" style="text;html=1;strokeColor=none;fillColor=none;align=center;verticalAlign=middle;whiteSpace=wrap;rounded=0;" vertex="1" parent="WIyWlLk6GJQsqaUBKTNV-1">
          <mxGeometry x="-130" y="645" width="90" height="30" as="geometry" />
        </mxCell>
        <mxCell id="Pa3N6rqgdRiIKMQ5oKtf-71" value="Page 2" style="text;html=1;strokeColor=none;fillColor=none;align=center;verticalAlign=middle;whiteSpace=wrap;rounded=0;" vertex="1" parent="WIyWlLk6GJQsqaUBKTNV-1">
          <mxGeometry x="10" y="645" width="90" height="30" as="geometry" />
        </mxCell>
        <mxCell id="Pa3N6rqgdRiIKMQ5oKtf-72" value="property: 0" style="text;html=1;strokeColor=none;fillColor=none;align=center;verticalAlign=middle;whiteSpace=wrap;rounded=0;" vertex="1" parent="WIyWlLk6GJQsqaUBKTNV-1">
          <mxGeometry x="225" y="715" width="90" height="30" as="geometry" />
        </mxCell>
        <mxCell id="Pa3N6rqgdRiIKMQ5oKtf-73" value="page_link" style="rounded=0;whiteSpace=wrap;html=1;" vertex="1" parent="WIyWlLk6GJQsqaUBKTNV-1">
          <mxGeometry x="230" y="775" width="80" height="30" as="geometry" />
        </mxCell>
        <mxCell id="Pa3N6rqgdRiIKMQ5oKtf-74" value="Page n" style="text;html=1;strokeColor=none;fillColor=none;align=center;verticalAlign=middle;whiteSpace=wrap;rounded=0;" vertex="1" parent="WIyWlLk6GJQsqaUBKTNV-1">
          <mxGeometry x="225" y="645" width="90" height="30" as="geometry" />
        </mxCell>
        <mxCell id="Pa3N6rqgdRiIKMQ5oKtf-75" value="..." style="text;html=1;strokeColor=none;fillColor=none;align=center;verticalAlign=middle;whiteSpace=wrap;rounded=0;" vertex="1" parent="WIyWlLk6GJQsqaUBKTNV-1">
          <mxGeometry x="135" y="734" width="60" height="30" as="geometry" />
        </mxCell>
        <mxCell id="Pa3N6rqgdRiIKMQ5oKtf-76" value="0x00050000" style="text;whiteSpace=wrap;html=1;" vertex="1" parent="WIyWlLk6GJQsqaUBKTNV-1">
          <mxGeometry x="-180" y="675" width="80" height="30" as="geometry" />
        </mxCell>
        <mxCell id="Pa3N6rqgdRiIKMQ5oKtf-77" value="address" style="text;whiteSpace=wrap;html=1;" vertex="1" parent="WIyWlLk6GJQsqaUBKTNV-1">
          <mxGeometry x="380" y="665" width="80" height="30" as="geometry" />
        </mxCell>
        <mxCell id="Pa3N6rqgdRiIKMQ5oKtf-78" value="0x00051000" style="text;whiteSpace=wrap;html=1;" vertex="1" parent="WIyWlLk6GJQsqaUBKTNV-1">
          <mxGeometry x="-50" y="675" width="80" height="30" as="geometry" />
        </mxCell>
        <mxCell id="Pa3N6rqgdRiIKMQ5oKtf-79" value="0x00052000" style="text;whiteSpace=wrap;html=1;" vertex="1" parent="WIyWlLk6GJQsqaUBKTNV-1">
          <mxGeometry x="90" y="675" width="80" height="30" as="geometry" />
        </mxCell>
      </root>
    </mxGraphModel>
  </diagram>
</mxfile>
